<?xml version="1.0" standalone="yes"?>
<svg xmlns="http://www.w3.org/2000/svg" width="323" height="260">
<path style="fill:black; fill-opacity:0.0; stroke:none;" d="M0 0L0 260L323 260L323 0L0 0z"/>
<path style="fill:white; stroke:none;" d="M103 193L134 193L134 100L134 72C134 66.345 133.509 60.4696 135.221 55C140.934 36.7489 164.072 32.7019 175.442 48.0008C182.377 57.3322 180 71.0648 180 82L211 82C211 63.1016 212.18 42.6928 199.621 27C177.326 -0.859436 129.279 2.36816 111.093 33C101.021 49.9652 103 71.1022 103 90L103 193M204 24C206.975 31.1777 211.416 37.3947 213.572 45C217.408 58.5347 216 73.0714 216 87L199 87L199 121L214 121L214 193L228 193L228 134C231.396 134 236.618 133.056 239.581 135.028C243.502 137.637 244.195 145.791 245.424 150C248.151 159.331 250.91 168.651 253.579 178C254.691 181.896 255.432 188.283 258.139 191.397C260.139 193.698 264.289 192.999 267 193L288 193C283.465 171.086 274.923 149.277 268 128C287.346 118.123 288 96.9448 288 78C288 61.4448 287.307 44.6888 272.996 33.5293C254.756 19.3061 225.572 24 204 24M27 25L27 193L56 193L56 135C65.7 135 75.4852 135.587 85 133.324C88.2615 132.548 92.9391 131.437 95.3966 129.006C98.644 125.794 97 117.196 97 113C97 98.0006 96.9284 82.9992 97.0008 68C97.0358 60.7393 97.9691 52.9735 100.036 46C101.182 42.1365 103.629 37.8263 100.642 34.213C96.5671 29.284 88.0056 27.0015 82 25.8079C64.6843 22.3663 44.6376 25 27 25z"/>
<path style="fill:#1A202E; stroke:none;" d="M56 51L56 109C64.049 109 74.3001 110.251 80.8951 104.606C88.6927 97.9304 87 86.1516 87 77C87 73.0544 87.3659 68.8726 86.4707 65C85.6258 61.3449 83.7631 57.8526 80.8951 55.3943C74.1877 49.6452 64.1747 51 56 51M228 51L228 108C236.05 108 246.299 109.251 252.895 103.606C257.01 100.085 258.388 95.1422 259.13 90C260.713 79.017 261.869 61.9638 251.985 54.4298C245.465 49.4601 235.685 51 228 51z"/>
<path style="fill:white; stroke:none;" d="M158 126L158 155L179 155L179 193L208 193L208 126L158 126M48 204C53.4066 206.269 60.2093 204.619 66 205.17C82.7873 206.767 100.125 207 117 207C150.3 207 183.711 207.801 217 206.985C236.324 206.512 255.636 205 275 205C269.498 202.691 261.924 204.067 256 203.996C244.192 203.856 231.807 203.719 220 202.91C162.786 198.993 105.199 204 48 204M53 214C60.477 217.139 70.9752 216 79 216C92.3326 216 105.62 217 119 217C153.965 217 189.047 217.842 224 216.985C239.294 216.611 254.693 215.002 270 215C264.211 212.571 256.231 214.138 250 213.985C237.082 213.669 223.942 213.527 211 212.961C158.266 210.651 105.691 214 53 214M108 223C110.324 235.054 121.43 244.246 132 249.218C158.052 261.472 199.984 254.238 209 223L108 223z"/>
</svg>
